<?xml version="1.0" encoding="utf-8"?>
<!-- Generator: Adobe Illustrator 18.0.0, SVG Export Plug-In . SVG Version: 6.00 Build 0)  -->
<!DOCTYPE svg PUBLIC "-//W3C//DTD SVG 1.1//EN" "http://www.w3.org/Graphics/SVG/1.1/DTD/svg11.dtd">
<svg version="1.1" id="Layer_1" xmlns="http://www.w3.org/2000/svg" xmlns:xlink="http://www.w3.org/1999/xlink" x="0px" y="0px"
	 viewBox="0 0 792 612" enable-background="new 0 0 792 612" xml:space="preserve">
<path d="M438.2,289.2h-26.5v-6.6h26.5V289.2z M394.2,316.2c1.7,2.6,2.6,5.9,2.6,9.6c0,3.9-1,7.4-2.9,10.5c-1.3,2-2.8,3.8-4.6,5.2
	c-2.1,1.6-4.6,2.7-7.4,3.3c-2.9,0.6-5.9,0.9-9.3,0.9h-29.6v-65.8h31.7c8,0.1,13.6,2.4,17,7c2,2.8,3,6.2,3,10c0,4-1,7.2-3,9.7
	c-1.1,1.4-2.8,2.6-5,3.7C390,311.6,392.5,313.6,394.2,316.2z M358.1,305.9h13.9c2.9,0,5.2-0.6,7-1.6c1.8-1.1,2.7-3,2.7-5.8
	c0-3.1-1.2-5.1-3.5-6.1c-2-0.7-4.6-1-7.8-1h-12.2L358.1,305.9L358.1,305.9z M382.9,324.9c0-3.4-1.4-5.8-4.2-7
	c-1.6-0.7-3.7-1.1-6.6-1.1h-14.1v17.5h13.9c2.9,0,5.1-0.4,6.7-1.2C381.5,331.7,382.9,329,382.9,324.9z M448,314.2
	c0.3,2.2,0.5,5.3,0.4,9.4h-34.2c0.2,4.7,1.8,8,4.9,9.9c1.9,1.2,4.1,1.8,6.8,1.8c2.8,0,5.1-0.7,6.8-2.2c1-0.8,1.8-1.9,2.5-3.2h12.5
	c-0.3,2.8-1.8,5.6-4.5,8.5c-4.2,4.6-10.1,6.9-17.7,6.9c-6.3,0-11.8-1.9-16.6-5.8c-4.8-3.9-7.2-10.2-7.2-18.9
	c0-8.2,2.1-14.4,6.5-18.8c4.3-4.4,9.9-6.5,16.8-6.5c4.1,0,7.8,0.7,11.1,2.2c3.3,1.5,6,3.8,8.1,7C446.2,307.3,447.5,310.5,448,314.2z
	 M435.7,315.4c-0.2-3.3-1.3-5.8-3.3-7.4c-1.9-1.7-4.4-2.6-7.3-2.6c-3.2,0-5.6,0.9-7.3,2.7c-1.7,1.8-2.8,4.2-3.3,7.3L435.7,315.4
	L435.7,315.4z"/>
</svg>
