<?xml version="1.0" encoding="utf-8"?>
<!-- Generator: Adobe Illustrator 18.0.0, SVG Export Plug-In . SVG Version: 6.00 Build 0)  -->
<!DOCTYPE svg PUBLIC "-//W3C//DTD SVG 1.1//EN" "http://www.w3.org/Graphics/SVG/1.1/DTD/svg11.dtd">
<svg version="1.1" id="Layer_1" xmlns="http://www.w3.org/2000/svg" xmlns:xlink="http://www.w3.org/1999/xlink" x="0px" y="0px"
	 viewBox="0 0 792 612" enable-background="new 0 0 792 612" xml:space="preserve">
<path d="M419.8,323.9c0-7.3-1.5-12.2-8.3-12.2c-5.2,0-9.5,3.4-10.9,6.6c-0.5,1.2-0.6,2.8-0.6,4.4v30.2h-20.1c0,0,0.2-51,0-56H400
	v9.7c0,0.1-0.1,0.1-0.1,0.2h0.1v-0.2c2.5-3.7,8.2-9.7,18.2-9.7c12.4,0,21.7,8.5,21.7,25.1v31h-20.1V323.9z M362.6,291.4h-0.1
	c-6.3,0-10.4-4.2-10.4-9.3c0-5.3,4.2-9.3,10.6-9.3c6.4,0,10.4,4,10.5,9.3C373.2,287.2,369.1,291.4,362.6,291.4z M372,352.8h-18.8
	v-54H372V352.8z"/>
</svg>
