<?xml version="1.0" encoding="utf-8"?>
<!-- Generator: Adobe Illustrator 18.0.0, SVG Export Plug-In . SVG Version: 6.00 Build 0)  -->
<!DOCTYPE svg PUBLIC "-//W3C//DTD SVG 1.1//EN" "http://www.w3.org/Graphics/SVG/1.1/DTD/svg11.dtd">
<svg version="1.1" id="Layer_1" xmlns="http://www.w3.org/2000/svg" xmlns:xlink="http://www.w3.org/1999/xlink" x="0px" y="0px"
	 viewBox="0 0 792 612" enable-background="new 0 0 792 612" xml:space="preserve">
<path d="M437.3,281.5l-7.6,7.6c0,0,0-0.7,0,1.3c0,1.4-0.2,2.7-0.5,4c-0.2,10.4-3.5,24.2-17.2,35.1c-26.9,21.4-55.7,2.5-55.7,2.5
	c22.8,0,22.8-7.6,22.8-7.6c-5.1,0-15.2-10.1-15.2-10.1c2.5,2.5,7.6,0,7.6,0c-12.7-7.6-12.7-15.1-12.7-15.1c2.5,2.5,7.6,0,7.6,0
	c-12.7-10.1-5.1-22.7-5.1-22.7c2.5,12.6,35.5,17.7,35.5,17.7l0.4-0.2c-0.3-1.2-0.4-3.6-0.4-4.8c0-9.1,7.4-15.1,16.5-15.1
	c5,0,9.4,2.3,12.5,5.8l1.5-0.7l7.6-5l-5.1,10.1L437.3,281.5z"/>
</svg>
