<?xml version="1.0" encoding="utf-8"?>
<!-- Generator: Adobe Illustrator 18.0.0, SVG Export Plug-In . SVG Version: 6.00 Build 0)  -->
<!DOCTYPE svg PUBLIC "-//W3C//DTD SVG 1.1//EN" "http://www.w3.org/Graphics/SVG/1.1/DTD/svg11.dtd">
<svg version="1.1" id="Layer_1" xmlns="http://www.w3.org/2000/svg" xmlns:xlink="http://www.w3.org/1999/xlink" x="0px" y="0px"
	 viewBox="0 0 612 792" enable-background="new 0 0 612 792" fill="white" xml:space="preserve">
<g>
	<path d="M409.9,400.1h-49.4c-5.7,0-10.3,4.6-10.3,10.4V460c0,5.7,4.6,10.4,10.3,10.4h49.4c5.7,0,10.3-4.6,10.3-10.4v-49.5
		C420.2,404.8,415.6,400.1,409.9,400.1z M382.5,442.7v-15l11.1,7.5L382.5,442.7z"/>
	<path d="M252.7,400.1h-49.4c-5.7,0-10.3,4.6-10.3,10.4V460c0,5.7,4.6,10.4,10.3,10.4h49.4c5.7,0,10.3-4.6,10.3-10.4v-49.5
		C263,404.8,258.4,400.1,252.7,400.1z M230.9,442.7l-11.1-7.5l11.1-7.5V442.7z"/>
	<path d="M331.5,319.1h-49.4c-6.5,0-11.8,5.3-11.8,11.9v49.5c0,6.5,5.3,11.9,11.8,11.9h49.4c6.5,0,11.8-5.3,11.8-11.9V331
		C343.3,324.4,338,319.1,331.5,319.1z M340.3,380.5c0,4.9-4,8.9-8.8,8.9h-49.4c-4.9,0-8.8-4-8.8-8.9V331c0-4.9,4-8.9,8.8-8.9h49.4
		c4.9,0,8.8,4,8.8,8.9V380.5z"/>
	<path d="M296.5,360.4h20.6L306.8,345L296.5,360.4z M302.1,357.4l4.7-7l4.7,7H302.1z"/>
	<path d="M331.5,398.6h-49.4c-6.5,0-11.8,5.3-11.8,11.9V460c0,6.5,5.3,11.9,11.8,11.9h49.4c6.5,0,11.8-5.3,11.8-11.9v-49.5
		C343.3,403.9,338,398.6,331.5,398.6z M340.3,460c0,4.9-4,8.9-8.8,8.9h-49.4c-4.9,0-8.8-4-8.8-8.9v-49.5c0-4.9,4-8.9,8.8-8.9h49.4
		c4.9,0,8.8,4,8.8,8.9V460z"/>
	<path d="M306.8,445.9l10.3-15.4h-20.6L306.8,445.9z M306.8,440.5l-4.7-7h9.3L306.8,440.5z"/>
</g>
</svg>
